<?xml version="1.0" encoding="utf-8"?>
<!-- Generator: Adobe Illustrator 18.0.0, SVG Export Plug-In . SVG Version: 6.00 Build 0)  -->
<!DOCTYPE svg PUBLIC "-//W3C//DTD SVG 1.1//EN" "http://www.w3.org/Graphics/SVG/1.1/DTD/svg11.dtd">
<svg version="1.1" id="Layer_1" xmlns="http://www.w3.org/2000/svg" xmlns:xlink="http://www.w3.org/1999/xlink" x="0px" y="0px"
	 viewBox="0 0 2048 2048" enable-background="new 0 0 2048 2048" xml:space="preserve">
<path fill="#FFFFFF" d="M1892.8,1229.8c41,23.2,67.5,57.7,79.5,103.6c12,45.9,6.5,89.3-16.7,130.3l-85.5,147
	c-23.2,41-57.7,67.5-103.6,79.5c-45.9,12-89.3,6.5-130.3-16.7l-355.5-204.5v410.3c0,46.3-16.9,86.4-50.8,120.3
	c-33.9,33.9-74,50.8-120.3,50.8H938.5c-46.3,0-86.4-16.9-120.3-50.8c-33.9-33.9-50.8-74-50.8-120.3v-410.3l-355.5,204.5
	c-41,23.2-84.4,28.7-130.3,16.7c-45.9-12-80.4-38.5-103.6-79.5l-85.5-147c-23.2-41-28.7-84.4-16.7-130.3s38.5-80.4,79.5-103.6
	L510.7,1024L155.2,818.2c-41-23.2-67.5-57.7-79.5-103.6c-12-45.9-6.5-89.3,16.7-130.3l85.5-147c23.2-41,57.7-67.5,103.6-79.5
	c45.9-12,89.3-6.5,130.3,16.7l355.5,204.5V168.6c0-46.3,16.9-86.4,50.8-120.3s74-50.8,120.3-50.8h171.1c46.3,0,86.4,16.9,120.3,50.8
	c33.9,33.9,50.8,74,50.8,120.3v410.3l355.5-204.5c41-23.2,84.4-28.7,130.3-16.7c45.9,12,80.4,38.5,103.6,79.5l85.5,147
	c23.2,41,28.7,84.4,16.7,130.3c-12,45.9-38.5,80.4-79.5,103.6L1537.3,1024L1892.8,1229.8z"/>
</svg>
