<?xml version="1.0" encoding="utf-8"?>
<!-- Generator: Adobe Illustrator 18.0.0, SVG Export Plug-In . SVG Version: 6.00 Build 0)  -->
<!DOCTYPE svg PUBLIC "-//W3C//DTD SVG 1.1//EN" "http://www.w3.org/Graphics/SVG/1.1/DTD/svg11.dtd">
<svg version="1.1" id="Layer_1" xmlns="http://www.w3.org/2000/svg" xmlns:xlink="http://www.w3.org/1999/xlink" x="0px" y="0px"
	 viewBox="0 -624.5 2274 2274" enable-background="new 0 -624.5 2274 2274" xml:space="preserve">
<path fill="#FFFFFF" d="M1137,1024L1137,1024L1137,1024c-9.3,0-17.8-1-25.5-3s-16.5-4-26.5-6c-4.7-2.7-8.5-5.2-11.5-7.5
	s-6.8-4.5-11.5-6.5L47,212c-26-20.7-41.2-46.8-45.5-78.5S4.7,73,24,47C44.7,21,70.8,5.8,102.5,1.5S163,4.7,189,24l948,731l949-731
	c26-19.3,55.3-27,88-23s58.3,18,77,42c18.7,26,26,55.2,22,87.5s-17.7,58.2-41,77.5l-1019,793c-4.7,2-8.7,4.2-12,6.5s-7.3,4.8-12,7.5
	c-6.7,2-14.7,4-24,6S1146.3,1024,1137,1024L1137,1024z"/>
</svg>
