<?xml version="1.0" encoding="utf-8"?>
<!-- Generator: Adobe Illustrator 18.0.0, SVG Export Plug-In . SVG Version: 6.00 Build 0)  -->
<!DOCTYPE svg PUBLIC "-//W3C//DTD SVG 1.1//EN" "http://www.w3.org/Graphics/SVG/1.1/DTD/svg11.dtd">
<svg version="1.1" id="Layer_1" xmlns="http://www.w3.org/2000/svg" xmlns:xlink="http://www.w3.org/1999/xlink" x="0px" y="0px"
	 viewBox="0.8 35.6 172.2 128" enable-background="new 0.8 35.6 172.2 128" xml:space="preserve">
<g id="Layer_1_1_">
	<g>
		<path fill="#FFFFFF" d="M103.5,110.6c-5.1,5.1-12,7.5-19.3,6.7c-5.4-0.6-10.3-3.2-14.1-7l-68-68c-0.8,1.6-1.2,3.3-1.2,5.2
			L0.8,151.8c0,6.5,5.3,11.8,11.8,11.8h148.5c6.5,0,11.8-5.3,11.8-11.8L173,47.4c0-1.9-0.4-3.6-1.2-5.2L103.5,110.6z"/>
		<path fill="#FFFFFF" d="M87,105.4c2.9,0,5.8-1.1,8-3.3l66.5-66.5c0,0,0,0,0,0H12.7c0,0.1,0,0.1-0.1,0.2l66.3,66.3
			C81.1,104.3,84,105.4,87,105.4z"/>
	</g>
</g>
<g id="Layer_3">
</g>
</svg>
