<?xml version="1.0" encoding="utf-8"?>
<!-- Generator: Adobe Illustrator 18.0.0, SVG Export Plug-In . SVG Version: 6.00 Build 0)  -->
<!DOCTYPE svg PUBLIC "-//W3C//DTD SVG 1.1//EN" "http://www.w3.org/Graphics/SVG/1.1/DTD/svg11.dtd">
<svg version="1.1" id="Layer_1" xmlns="http://www.w3.org/2000/svg" xmlns:xlink="http://www.w3.org/1999/xlink" x="0px" y="0px"
	 viewBox="0 0 999.8 972.7" enable-background="new 0 0 999.8 972.7" xml:space="preserve">
<path fill="#FFFFFF" d="M498.4,0C223.2,0,0,223.2,0,498.4C0,718.5,143.7,905,339.4,972.3c24.5,3.1,33.6-12.2,33.6-24.5
	s0-42.8,0-85.6c-137.6,30.6-168.2-67.3-168.2-67.3c-21.4-58.1-55-73.4-55-73.4C104,691,152.9,691,152.9,691
	c48.9,3.1,76.4,52,76.4,52c45.9,76.4,116.2,55,143.7,42.8c3.1-33.6,18.3-55,30.6-67.3c-110.1-12.2-226.3-55-226.3-247.7
	c0-55,18.3-97.8,52-134.5c-6.1-12.2-21.4-64.2,6.1-131.5c0,0,42.8-12.2,137.6,52c39.7-12.2,82.6-15.3,125.4-15.3
	c42.8,0,85.6,6.1,125.4,15.3c94.8-64.2,137.6-52,137.6-52c27.5,67.3,9.2,119.2,6.1,131.5c30.6,33.6,52,79.5,52,134.5
	c0,192.6-116.2,232.4-226.3,244.6c18.3,15.3,33.6,45.9,33.6,91.7c0,67.3,0,119.2,0,137.6c0,12.2,9.2,27.5,33.6,24.5
	C859.2,902,999.8,715.5,999.8,495.3C996.7,223.2,773.5,0,498.4,0z"/>
</svg>
