<?xml version="1.0" encoding="utf-8"?>
<!-- Generator: Adobe Illustrator 18.0.0, SVG Export Plug-In . SVG Version: 6.00 Build 0)  -->
<!DOCTYPE svg PUBLIC "-//W3C//DTD SVG 1.1//EN" "http://www.w3.org/Graphics/SVG/1.1/DTD/svg11.dtd">
<svg version="1.1" id="Switch" xmlns="http://www.w3.org/2000/svg" xmlns:xlink="http://www.w3.org/1999/xlink" x="0px" y="0px"
	 viewBox="0 0 1000 1000" enable-background="new 0 0 1000 1000" xml:space="preserve">
<g>
	<path fill="none" stroke="#000000" stroke-width="29" stroke-miterlimit="10" d="M983.4,500c0-120.9-98.7-219.6-219.6-219.6H236.2
		c-120.9,0-219.6,98.7-219.6,219.6s98.7,219.6,219.6,219.6h527.7C884.6,719.6,983.4,620.9,983.4,500z M923.9,500
		c0,95.1-77,172.1-172.1,172.1c-31,0-60.1-8.2-85.2-22.6c-24.1-13.7-44.3-33-59.2-56.1c-17.3-26.9-27.4-59-27.4-93.4
		s10.1-66.5,27.4-93.4c15.2-23.4,35.9-42.8,60.1-56.6c25.1-14,53.7-22.2,84.5-22.2C846.9,327.9,923.9,404.9,923.9,500z"/>
	<path stroke="#000000" stroke-miterlimit="10" d="M674.1,349.8c15,11.1,28.1,24.3,39.2,39.2l-1.7,49.3l36.1,33.7
		c1.5,9.1,2.2,18.3,2.2,27.6c0,9.3-0.7,18.8-2.2,27.6L711.6,561l1.7,49.3c-11.1,15-24.3,28.1-39.2,39.2l-7.4-0.2
		c25.1,14.5,54.2,22.6,85.2,22.6C847,672,924,595,924,499.9s-77-172.1-172.1-172.1c-30.6,0-59.4,8.2-84.5,22.2L674.1,349.8z"/>
	<path stroke="#000000" stroke-width="10" stroke-linecap="round" stroke-linejoin="round" stroke-miterlimit="10" d="M666.4,500
		c0-41.1-24.1-76.8-59.2-93.4c-17.3,26.9-27.4,59-27.4,93.4s10.1,66.5,27.4,93.4C642.3,576.8,666.4,541.1,666.4,500z"/>
</g>
</svg>
