<?xml version="1.0" encoding="utf-8"?>
<!-- Generator: Adobe Illustrator 18.0.0, SVG Export Plug-In . SVG Version: 6.00 Build 0)  -->
<!DOCTYPE svg PUBLIC "-//W3C//DTD SVG 1.1//EN" "http://www.w3.org/Graphics/SVG/1.1/DTD/svg11.dtd">
<svg version="1.1" id="Switch" xmlns="http://www.w3.org/2000/svg" xmlns:xlink="http://www.w3.org/1999/xlink" x="0px" y="0px"
	 viewBox="0 0 411.6 192.4" enable-background="new 0 0 411.6 192.4" xml:space="preserve">
<g>
	<path fill="none" stroke="#FFFFFF" stroke-width="10" stroke-miterlimit="10" d="M406.6,96.2c0-50.2-41-91.2-91.2-91.2H96.2
		C46,5,5,46,5,96.2s41,91.2,91.2,91.2h219.2C365.6,187.4,406.6,146.4,406.6,96.2z M381.9,96.2c0,39.5-32,71.5-71.5,71.5
		c-12.9,0-25-3.4-35.4-9.4c-10-5.7-18.4-13.7-24.6-23.3c-7.2-11.2-11.4-24.5-11.4-38.8s4.2-27.6,11.4-38.8
		c6.3-9.7,14.9-17.8,25-23.5c10.4-5.8,22.3-9.2,35.1-9.2C349.9,24.7,381.9,56.7,381.9,96.2z"/>
	<path fill="#FFFFFF" stroke="#FFFFFF" stroke-miterlimit="10" d="M278.1,33.8c6.2,4.6,11.7,10.1,16.3,16.3l-0.7,20.5l15,14
		c0.6,3.8,0.9,7.6,0.9,11.5s-0.3,7.8-0.9,11.5l-15,14l0.7,20.5c-4.6,6.2-10.1,11.7-16.3,16.3l-3.1-0.1c10.4,6,22.5,9.4,35.4,9.4
		c39.5,0,71.5-32,71.5-71.5s-32-71.5-71.5-71.5c-12.7,0-24.7,3.4-35.1,9.2L278.1,33.8z"/>
	
		<path fill="#FFFFFF" stroke="#FFFFFF" stroke-width="10" stroke-linecap="round" stroke-linejoin="round" stroke-miterlimit="10" d="
		M274.9,96.2c0-17.1-10-31.9-24.6-38.8c-7.2,11.2-11.4,24.5-11.4,38.8s4.2,27.6,11.4,38.8C264.9,128.1,274.9,113.3,274.9,96.2z"/>
</g>
</svg>
